HIERARCHY
ROOT Hips
{
	OFFSET 0.000000 0.000000 0.000000
	CHANNELS 6 Xposition Yposition Zposition Zrotation Yrotation Xrotation
	JOINT LHipJoint
	{
		OFFSET 0.000000 0.000000 0.000000
		CHANNELS 3 Zrotation Yrotation Xrotation
		JOINT LeftUpLeg
		{
			OFFSET 0.076937 -0.101296 0.047373
			CHANNELS 3 Zrotation Yrotation Xrotation
			JOINT LeftLeg
			{
				OFFSET 0.138181 -0.379650 0.000000
				CHANNELS 3 Zrotation Yrotation Xrotation
				JOINT LeftFoot
				{
					OFFSET 0.144621 -0.397343 0.000000
					CHANNELS 3 Zrotation Yrotation Xrotation
					JOINT LeftToeBase
					{
						OFFSET 0.008898 -0.024446 0.131094
						CHANNELS 3 Zrotation Yrotation Xrotation
						End Site
						{
							OFFSET 0.000000 0.000000 0.000000
						}
					}
				}
			}
		}
	}
	JOINT RHipJoint
	{
		OFFSET 0.000000 0.000000 0.000000
		CHANNELS 3 Zrotation Yrotation Xrotation
		JOINT RightUpLeg
		{
			OFFSET -0.073689 -0.101296 0.047373
			CHANNELS 3 Zrotation Yrotation Xrotation
			JOINT RightLeg
			{
				OFFSET -0.143511 -0.394292 0.000000
				CHANNELS 3 Zrotation Yrotation Xrotation
				JOINT RightFoot
				{
					OFFSET -0.144963 -0.398282 0.000000
					CHANNELS 3 Zrotation Yrotation Xrotation
					JOINT RightToeBase
					{
						OFFSET -0.009298 -0.025546 0.133386
						CHANNELS 3 Zrotation Yrotation Xrotation
						End Site
						{
							OFFSET 0.000000 0.000000 0.000000
						}
					}
				}
			}
		}
	}
	JOINT LowerBack
	{
		OFFSET 0.000000 0.000000 0.000000
		CHANNELS 3 Zrotation Yrotation Xrotation
		JOINT Spine
		{
			OFFSET 0.001596 0.114897 -0.010915
			CHANNELS 3 Zrotation Yrotation Xrotation
			JOINT Spine1
			{
				OFFSET 0.003201 0.115645 -0.002413
				CHANNELS 3 Zrotation Yrotation Xrotation
				JOINT Neck
				{
					OFFSET 0.000000 0.000000 0.000000
					CHANNELS 3 Zrotation Yrotation Xrotation
					JOINT Neck1
					{
						OFFSET -0.003058 0.098565 0.009709
						CHANNELS 3 Zrotation Yrotation Xrotation
						JOINT Head
						{
							OFFSET 0.005874 0.099418 -0.006997
							CHANNELS 3 Zrotation Yrotation Xrotation
							End Site
							{
								OFFSET 0.000000 0.000000 0.000000
							}
						}
					}
				}
				JOINT LeftShoulder
				{
					OFFSET 0.000000 0.000000 0.000000
					CHANNELS 3 Zrotation Yrotation Xrotation
					JOINT LeftArm
					{
						OFFSET 0.189788 0.067783 -0.017566
						CHANNELS 3 Zrotation Yrotation Xrotation
						JOINT LeftForeArm
						{
							OFFSET 0.281260 -0.000000 -0.000000
							CHANNELS 3 Zrotation Yrotation Xrotation
							JOINT LeftHand
							{
								OFFSET 0.196626 -0.000000 -0.000000
								CHANNELS 3 Zrotation Yrotation Xrotation
								JOINT LeftFingerBase
								{
									OFFSET 0.000000 0.000000 0.000000
									CHANNELS 3 Zrotation Yrotation Xrotation
									JOINT LeftHandIndex1
									{
										OFFSET 0.040372 -0.000000 -0.000000
										CHANNELS 3 Zrotation Yrotation Xrotation
										End Site
										{
											OFFSET 0.000000 0.000000 0.000000
										}
									}
								}
								JOINT LThumb
								{
									OFFSET 0.000000 0.000000 0.000000
									CHANNELS 3 Zrotation Yrotation Xrotation
									End Site
									{
										OFFSET 0.000000 0.000000 0.000000
									}
								}
							}
						}
					}
				}
				JOINT RightShoulder
				{
					OFFSET 0.000000 0.000000 0.000000
					CHANNELS 3 Zrotation Yrotation Xrotation
					JOINT RightArm
					{
						OFFSET -0.177042 0.077557 -0.022840
						CHANNELS 3 Zrotation Yrotation Xrotation
						JOINT RightForeArm
						{
							OFFSET -0.295874 -0.000000 -0.000000
							CHANNELS 3 Zrotation Yrotation Xrotation
							JOINT RightHand
							{
								OFFSET -0.194403 -0.000000 -0.000000
								CHANNELS 3 Zrotation Yrotation Xrotation
								JOINT RightFingerBase
								{
									OFFSET 0.000000 0.000000 0.000000
									CHANNELS 3 Zrotation Yrotation Xrotation
									JOINT RightHandIndex1
									{
										OFFSET -0.035138 -0.000000 -0.000000
										CHANNELS 3 Zrotation Yrotation Xrotation
										End Site
										{
											OFFSET 0.000000 0.000000 0.000000
										}
									}
								}
								JOINT RThumb
								{
									OFFSET 0.000000 0.000000 0.000000
									CHANNELS 3 Zrotation Yrotation Xrotation
									End Site
									{
										OFFSET 0.000000 0.000000 0.000000
									}
								}
							}
						}
					}
				}
			}
		}
	}
}
MOTION
Frames: 3
Frame Time: 0.033333
0.0 0.9 0.0 0.0 45.0 0.0 -3.057728 22.355457 1.722835 -16.427603 -7.887005 -14.964139 7.364014 8.600438 50.991399 29.149588 -5.214975 4.661749 -7.425942 7.440726 -14.619214 0.984293 -28.066326 -5.399889 31.516438 7.544715 -14.029649 -10.594003 -2.947327 37.850103 -32.759392 10.728706 -11.999114 4.744993 -3.059308 -10.676814 2.105071 2.954631 24.700464 3.542801 2.962794 12.736224 -3.865672 -1.841091 -28.199627 -4.723903 3.671681 -12.502470 6.021777 3.811409 13.878105 -0.975580 0.932048 -7.205595 3.072914 22.641288 0.581496 -73.812283 -11.217409 42.288440 -1.320178 -50.465885 15.250284 7.928862 -14.517797 7.917689 -2.258877 12.986316 0.278735 -0.000873 -0.011656 0.011692 0.000153 -0.009631 -0.007221 -2.882136 -30.376884 -1.072296 74.586385 4.922023 43.126750 1.814153 43.633909 14.498467 -5.863171 16.443380 6.496214 1.966857 -13.908362 -0.160864 -0.027782 -0.046152 0.025715 -0.005762 0.005411 0.005467 
0.03 0.9 0.03 0.0 45.0 0.0 -2.975912 22.882004 2.686495 -13.552369 -7.781487 -15.937353 9.242102 10.184752 59.151116 32.994703 -12.365272 14.476504 -10.484377 12.467093 -11.771744 0.443340 -27.495646 -5.256595 32.424151 6.709665 -12.007294 -10.084165 -2.725427 34.937991 -34.144185 9.735282 -12.637465 4.178287 -2.637390 -10.144479 2.199716 1.975242 21.333235 3.619197 2.233616 15.094140 -3.283451 -1.463376 -29.913160 -3.970289 2.169720 -12.721392 5.734322 2.288834 14.407304 -1.218003 0.220934 -6.855420 1.970858 25.361484 0.528559 -73.654999 -9.917666 44.324741 -1.103934 -44.007535 15.407272 6.478547 -13.740109 7.185260 -3.029704 13.574153 0.193161 0.000657 -0.014379 0.011222 0.000438 -0.010175 -0.006417 -1.550227 -30.384064 0.225976 73.373998 4.757560 43.863032 0.849261 37.304770 13.973436 -5.246314 13.653581 6.368228 2.272446 -14.536817 -0.158704 -0.028803 -0.051895 0.025812 -0.003761 0.005205 0.003341 
0.06 0.9 0.06 0.0 45.0 0.0 -3.098644 23.762597 2.119962 -12.337038 -7.844302 -18.061233 11.786719 10.854079 65.850771 35.104033 -16.885269 18.471279 -11.563989 15.892417 -8.961991 0.251816 -26.835620 -4.596346 32.493799 5.792882 -9.943461 -9.626928 -2.778392 32.492920 -35.788184 9.296998 -12.530292 3.870214 -2.563271 -10.021819 2.139704 0.407720 18.886473 1.889834 0.978506 16.030932 -1.685711 0.215842 -30.930759 -2.636219 -1.342540 -13.004680 5.399539 -1.255273 15.090642 -1.754952 -1.556864 -6.507343 1.860023 29.441494 0.772233 -73.492518 -8.456367 46.101836 -1.223174 -39.309722 16.311313 5.139576 -14.185546 6.897395 -3.480886 13.571342 0.199834 0.001383 -0.016368 0.011656 0.001058 -0.010009 -0.005579 -0.617089 -28.937372 0.910893 72.455065 5.314027 46.051678 0.552567 34.379939 13.368109 -5.180679 11.594327 6.424143 2.525969 -15.050693 -0.143837 -0.029315 -0.055884 0.025552 -0.001742 0.004592 0.000448 
